<svg width="800" height="400" viewBox="0 0 800 400" xmlns="http://www.w3.org/2000/svg">
  <!-- Background -->
  <rect width="800" height="400" fill="#f8fafc"/>
  
  <!-- Grid Pattern -->
  <defs>
    <pattern id="grid" width="40" height="40" patternUnits="userSpaceOnUse">
      <path d="M 40 0 L 0 0 0 40" fill="none" stroke="#e2e8f0" stroke-width="1"/>
    </pattern>
  </defs>
  <rect width="800" height="400" fill="url(#grid)" opacity="0.5"/>
  
  <!-- Web Applications (Before) -->
  <g transform="translate(100, 50)">
    <rect x="0" y="0" width="100" height="80" rx="8" fill="#94a3b8" stroke="#64748b" stroke-width="2"/>
    <text x="50" y="35" text-anchor="middle" fill="white" font-family="Arial, sans-serif" font-size="12" font-weight="bold">Web Apps</text>
    <circle cx="50" cy="50" r="6" fill="#60a5fa"/>
    <path d="M 46 46 L 50 54 L 54 46" stroke="white" stroke-width="2" fill="none"/>
    
    <!-- Limitation Icon -->
    <g transform="translate(70, 30)">
      <circle cx="0" cy="0" r="8" fill="#ef4444"/>
      <text x="0" y="5" text-anchor="middle" fill="white" font-size="12" font-weight="bold" font-family="Arial, sans-serif">!</text>
    </g>
  </g>
  
  <!-- Desktop Applications (After) -->
  <g transform="translate(250, 50)">
    <rect x="0" y="0" width="100" height="80" rx="8" fill="#10b981" stroke="#059669" stroke-width="2"/>
    <text x="50" y="35" text-anchor="middle" fill="white" font-family="Arial, sans-serif" font-size="12" font-weight="bold">Desktop</text>
    <circle cx="50" cy="50" r="6" fill="#34d399"/>
    <path d="M 46 46 L 50 54 L 54 46" stroke="white" stroke-width="2" fill="none"/>
    
    <!-- Success Icon -->
    <g transform="translate(70, 30)">
      <circle cx="0" cy="0" r="8" fill="#10b981"/>
      <text x="0" y="5" text-anchor="middle" fill="white" font-size="12" font-weight="bold" font-family="Arial, sans-serif">✓</text>
    </g>
  </g>
  
  <!-- Mobile Applications (After) -->
  <g transform="translate(400, 50)">
    <rect x="0" y="0" width="100" height="80" rx="8" fill="#8b5cf6" stroke="#6d28d9" stroke-width="2"/>
    <text x="50" y="35" text-anchor="middle" fill="white" font-family="Arial, sans-serif" font-size="12" font-weight="bold">Mobile</text>
    <circle cx="50" cy="50" r="6" fill="#a78bfa"/>
    <path d="M 46 46 L  50 54 L 54 46" stroke="white" stroke-width="2" fill="none"/>
    
    <!-- Success Icon -->
    <g transform="translate(70, 30)">
      <circle cx="0" cy="0" r="8" fill="#8b5cf6"/>
      <text x="0" y="5" text-anchor="middle" fill="white" font-size="12" font-weight="bold" font-family="Arial, sans-serif">✓</text>
    </g>
  </g>
  
  <!-- Game Applications (After) -->
  <g transform="translate(550, 50)">
    <rect x="0" y="0" width="100" height="80" rx="8" fill="#ef4444" stroke="#dc2626" stroke-width="2"/>
    <text x="50" y="35" text-anchor="middle" fill="white" font-family="Arial, sans-serif" font-size="12" font-weight="bold">Games</text>
    <circle cx="50" cy="50" r="6" fill="#f87171"/>
    <path d="M 46 46 L 50 54 L 54 46" stroke="white" stroke-width="2" fill="none"/>
    
    <!-- Success Icon -->
    <g transform="translate(70, 30)">
      <circle cx="0" cy="0" r="8" fill="#ef4444"/>
      <text x="0" y="5" text-anchor="middle" fill="white" font-size="12" font-weight="bold" font-family="Arial, sans-serif">✓</text>
    </g>
  </g>
  
  <!-- Arrow indicating expansion -->
  <path d="M 150 130 L 200 130" stroke="#64748b" stroke-width="2" marker-end="url(#arrowhead)"/>
  <path d="M 300 130 L 350 130" stroke="#64748b" stroke-width="2" marker-end="url(#arrowhead)"/>
  <path d="M 450 130 L 500 130" stroke="#64748b" stroke-width="2" marker-end="url(#arrowhead)"/>
  <path d="M 600 130 L 650 130" stroke="#64748b" stroke-width="2" marker-end="url(#arrowhead)"/>
  
  <!-- Coverage Comparison -->
  <g transform="translate(100, 180)">
    <rect x="0" y="0" width="550" height="80" rx="8" fill="#f1f5f9" stroke="#e5e7eb" stroke-width="1"/>
    <text x="275" y="25" text-anchor="middle" fill="#374151" font-family="Arial, sans-serif" font-size="14" font-weight="bold">Application Coverage Expansion</text>
    
    <!-- Comparison Bars -->
    <g transform="translate(50, 45)">
      <text x="0" y="0" fill="#6b7280" font-family="Arial, sans-serif" font-size="11">Before:</text>
      <rect x="50" y="5" width="40" height="10" rx="4" fill="#94a3b8"/>
      <text x="95" y="12" fill="#6b7280" font-family="Arial, sans-serif" font-size="10">20%</text>
      
      <text x="200" y="0" fill="#6b7280" font-family="Arial, sans-serif" font-size="11">After:</text>
      <rect x="200" y="5" width="40" height="10" rx="4" fill="#10b981"/>
      <text x="245" y="12" fill="#6b7280" font-family="Arial, sans-serif" font-size="10">100%</text>
      
      <text x="350" y="0" fill="#6b7280" font-family="Arial, sans-serif" font-size="11">Growth:</text>
      <text x="350" y="20" fill="#10b981" font-family="Arial, sans-serif" font-size="10">5x</text>
    </g>
  </g>
  
  <!-- Technical Architecture -->
  <g transform="translate(100, 280)">
    <rect x="0" y="0" width="550" height="80" rx="8" fill="#f1f5f9" stroke="#e5e7eb" stroke-width="1"/>
    <text x="275" y="25" text-anchor="middle" fill="#374151" font-family="Arial, sans-serif" font-size="14" font-weight="bold">Unified Architecture</text>
    
    <!-- Architecture Components -->
    <g transform="translate(50, 45)">
      <!-- Platform Adapter -->
      <rect x="0" y="0" width="80" height="15" rx="4" fill="#6366f1"/>
      <text x="40" y="10" text-anchor="middle" fill="white" font-size="10" font-weight="bold">Platform Adapter</text>
      
      <!-- Strategy Selector -->
      <rect x="100" y="0" width="80" height="15" rx="4" fill="#8b5cf6"/>
      <text x="140" y="10" text-anchor="middle" fill="white" font-size="10" font-weight="bold">Strategy Selector</text>
      
      <!-- MCP Integration -->
      <rect x="200" y="0" width="80" height="15" rx="4" fill="#8b5cf6"/>
      <text x="240" y="10" text-anchor="middle" fill="white" font-size="10" font-weight="bold">MCP Integration</text>
      
      <!-- AI Agent Bridge -->
      <rect x="300" y="0" width="80" height="15" rx="4" fill="#8b5cf6"/>
      <text x="340" y="10" text-anchor="middle" fill="white" font-size="10" font-weight="bold">AI Agent Bridge</text>
    </g>
  </g>
  
  <!-- Real-world Examples -->
  <g transform="translate(100, 380)">
    <rect x="0" y="0" width="550" height="80" rx="8" fill="#f1f5f9" stroke="#e5e7eb" stroke-width="1"/>
    <text x="275" y="25" text-anchor="middle" fill="#374151" font-family="Arial, sans-serif" font-size="14" font-weight="bold">Real-World Impact</text>
    
    <!-- Examples -->
    <g transform="translate(50, 45)">
      <text x="0" y="0" fill="#6b7280" font-family="Arial, sans-serif" font-size="11">• Social Media Management</text>
      <text x="0" y="15" fill="#6b7280" font-family="Arial, sans-serif" font-size="11">• Game Automation</text>
      <text x="0" y="30" fill="#6b7280" font-family="Arial, sans-serif" font-size="11">• Enterprise Automation</text>
      <text x="275" y="0" fill="#6b7280" font-family="Arial, sans-serif" font-size="11">• Data Collection & Analysis</text>
      <text x="275" y="15" fill="#6b7280" font-family="Arial, sans-serif" font-size="11">• AI Agent Control</text>
      <text x="275" y="30" fill="#6b7280" font-family="Arial, sans-serif" font-size="11">• Complete Application Control</text>
    </g>
  </g>
  
  <!-- Arrow Markers -->
  <defs>
    <marker id="arrowhead" markerWidth="10" markerHeight="10" refX="9" refY="3" orient="auto">
      <polygon points="0 0, 10 5, 5 0, 10" fill="#64748b"/>
    </marker>
    <marker id="arrowhead-small" markerWidth="8" markerHeight="8" refX="7" refY="3" orient="auto">
      <polygon points="0 0, 8 4, 4 0, 8" fill="#64748b"/>
    </marker>
  </defs>
</svg>
